# xmcd
#
# Track frame offsets:
#	150
#	16517
#	40622
#	59255
#	79632
#	96247
#	115807
#	137712
#	153327
#	172290
#	194677
#	210065
#	228825
#	246695
#	263130
#	281800
#
# Disc length: 4052 seconds
#
# Revision: 1
# Processed by: cddbd v1.5PL3 Copyright (c) Steve Scherf et al.
# Submitted via: CDex 1.50Beta5
#
DISCID=d80fd210
DTITLE=桂銀淑 - 桂銀淑ヒットソング(’85〜’87)
DYEAR=1993
DGENRE=Pop
TTITLE0=大阪暮色
TTITLE1=流されて
TTITLE2=星おんな
TTITLE3=すずめの涙
TTITLE4=銀座の小雪
TTITLE5=真夜中のブルース
TTITLE6=私には貴男だけ
TTITLE7=ためいきワルツ
TTITLE8=いゝ女になったなら
TTITLE9=J
TTITLE10=夢やつれ
TTITLE11=彼氏
TTITLE12=愛してます
TTITLE13=行きずり
TTITLE14=愛の迷路
TTITLE15=ラストシーン
EXTD=
EXTT0=
EXTT1=
EXTT2=
EXTT3=
EXTT4=
EXTT5=
EXTT6=
EXTT7=
EXTT8=
EXTT9=
EXTT10=
EXTT11=
EXTT12=
EXTT13=
EXTT14=
EXTT15=
PLAYORDER=
